<?xml version="1.0" encoding="UTF-8"?> <svg xmlns="http://www.w3.org/2000/svg" width="114" height="38" viewBox="0 0 114 38" fill="none"><g clip-path="url(#clip0_1897_3873)"><path fill-rule="evenodd" clip-rule="evenodd" d="M56.4693 2.05491C57.471 2.38442 58.4435 2.79641 59.3754 3.28657C60.2529 3.74658 61.0845 4.28722 61.859 4.90135C61.8243 4.68053 61.7924 4.46985 61.7636 4.2744L61.3473 1.43108L63.4686 3.39581C64.3362 4.20066 65.1575 5.0734 65.8685 6.01751C66.3792 6.68996 66.8297 7.40545 67.214 8.15586L68.1293 4.74568L69.2988 7.42398C69.7331 8.41228 70.0818 9.43519 70.341 10.4818C70.5701 11.4033 70.7123 12.3436 70.7667 13.2909L71.1578 12.8137L72.9987 10.5677L72.9681 13.4586C72.9605 14.4637 72.8718 15.4664 72.7031 16.4576C72.5411 17.4031 72.2936 18.3325 71.9646 19.2346C71.943 19.2923 71.9214 19.3493 71.8994 19.4062L72.4637 19.1237L75.0984 17.8039L73.8443 20.4526C73.2921 21.6203 72.636 22.7583 71.853 23.7992C71.4152 24.3831 70.9341 24.9338 70.413 25.4463C70.6173 25.4354 70.8279 25.4241 71.048 25.4116L74.0256 25.2473L71.7711 27.1836C70.7852 28.0294 69.7209 28.8065 68.5775 29.4433C67.9376 29.8027 67.2711 30.1134 66.5831 30.3726L67.1654 30.5922L69.9297 31.6378L67.1015 32.5027C66.1268 32.8043 65.13 33.031 64.1202 33.1808C63.1721 33.3199 62.2131 33.3743 61.2551 33.3434C61.1876 33.3411 61.1201 33.338 61.0535 33.3341L61.4958 33.771L63.5919 35.8434L60.6566 35.4923C59.7449 35.384 58.8417 35.2138 57.9539 34.9828C57.102 34.7617 56.2682 34.4767 55.4595 34.1304C55.2264 34.0297 55.0001 33.9223 54.7814 33.8081L55.0073 34.3879L56.0571 37.1079L53.529 35.6129C52.5543 35.0425 51.6309 34.3898 50.7696 33.6622C50.0748 33.0737 49.4358 32.4234 48.8612 31.7193L48.8265 32.3435L48.6672 35.2668L46.9716 32.8695C46.3727 32.0289 45.8403 31.1438 45.3792 30.222C44.9316 29.328 44.5733 28.393 44.3093 27.4301C44.2122 27.6187 44.1159 27.805 44.0199 27.9888L42.6795 30.5664L42.1094 27.7184C41.9001 26.6845 41.7767 25.6353 41.7404 24.5814C41.7062 23.611 41.7642 22.6396 41.9135 21.6799C41.7404 21.8184 41.576 21.9496 41.4247 22.0701L39.1436 23.8792L39.7902 21.0616C40.0217 20.0324 40.3382 19.0238 40.7364 18.0458C41.1037 17.1465 41.5557 16.2834 42.0862 15.4678L41.4783 15.6262L38.656 16.3581L40.4064 14.0454C41.2413 12.9417 42.1907 11.9039 43.257 11.0089C43.7506 10.5931 44.2714 10.21 44.8159 9.86188C44.5655 9.82291 44.3451 9.78822 44.1792 9.7613L41.2705 9.29313L43.8511 7.88041C44.856 7.32487 45.9074 6.85639 46.9941 6.48023C47.8401 6.18791 48.7109 5.97104 49.596 5.8322C49.412 5.71519 49.2374 5.60595 49.0754 5.50528L46.5189 3.92054L49.5231 3.64745C50.6054 3.5441 51.6944 3.53014 52.7789 3.6057C53.7405 3.67453 54.6932 3.83231 55.6251 4.07699C55.4843 3.86241 55.3641 3.68022 55.2863 3.56045L53.709 1.1416L56.4689 2.05569L56.4693 2.05491ZM56.8523 25.8364C57.7752 25.8377 58.6896 25.6584 59.5428 25.3088C60.3956 24.9592 61.1705 24.4461 61.8225 23.7992C62.4759 23.1539 62.9943 22.3873 63.348 21.5432C63.7013 20.6992 63.8822 19.7943 63.8813 18.8807C63.8826 17.9671 63.7013 17.0621 63.348 16.218C62.9948 15.3739 62.4764 14.6071 61.8225 13.9619C61.1705 13.3149 60.3956 12.8019 59.5428 12.4523C58.6896 12.1026 57.7752 11.9233 56.8523 11.9246C55.9289 11.9233 55.0145 12.1026 54.1617 12.4523C53.3085 12.8019 52.5341 13.3149 51.882 13.9619C51.2282 14.6071 50.7098 15.3738 50.3565 16.2179C50.0033 17.0621 49.8219 17.9671 49.8233 18.8807C49.8219 19.7943 50.0033 20.6992 50.3565 21.5433C50.7098 22.3873 51.2282 23.154 51.882 23.7992C52.5341 24.4461 53.3085 24.9591 54.1617 25.3087C55.0145 25.6584 55.9289 25.8377 56.8523 25.8364Z" fill="white"></path><path fill-rule="evenodd" clip-rule="evenodd" d="M56.0259 3.07812C57.8632 3.68114 59.6245 4.55482 61.1352 5.75388C61.9137 6.3716 62.5612 7.12317 63.2547 7.82696C63.0711 6.61245 62.8537 5.40486 62.6755 4.18953C64.3266 5.70424 65.7936 7.47875 66.6333 9.55424C66.8808 10.1669 67.0842 10.7951 67.3029 11.4195C67.6341 10.234 67.9545 9.0466 68.2767 7.85915C69.0651 9.64924 69.5974 11.5668 69.678 13.5209C69.7176 14.4516 69.5709 15.3761 69.5236 16.3033C70.3066 15.3519 71.091 14.4012 71.8771 13.4511C71.8578 15.2854 71.5711 17.1297 70.9308 18.8581C70.5654 19.8434 69.9984 20.735 69.507 21.6595C70.6207 21.1 71.7358 20.5421 72.8532 19.9857C71.8015 22.1876 70.3584 24.2762 68.3451 25.737C67.9828 25.9995 67.6242 26.2698 67.2691 26.5424C68.5219 26.4746 69.7761 26.4133 71.0298 26.3447C69.1573 27.9381 66.9748 29.2725 64.53 29.8054C64.0863 29.9023 63.6453 30.0105 63.2016 30.1094C64.3698 30.5554 65.5429 30.9904 66.7143 31.4279C64.9282 31.9707 63.0562 32.2845 61.1824 32.2205C60.1078 32.1837 59.0607 31.9371 58.0068 31.7501C58.8888 32.6257 59.7825 33.4897 60.6703 34.3595C58.9806 34.1587 57.3088 33.7511 55.7464 33.0841C54.5994 32.5962 53.5977 31.866 52.5766 31.1765C53.0244 32.3248 53.4784 33.4699 53.9253 34.6178C52.0834 33.5413 50.3725 32.184 49.1121 30.4654C48.6508 29.8356 48.2814 29.1469 47.853 28.497C47.7927 29.7254 47.7279 30.9534 47.659 32.1809C46.5268 30.5941 45.5966 28.8459 45.1035 26.9632C44.863 26.0465 44.795 25.0995 44.6574 24.1661C44.0817 25.2549 43.5225 26.3529 42.9499 27.4437C42.5715 25.5706 42.4552 23.6294 42.7656 21.7378C42.9238 20.7768 43.2662 19.8605 43.532 18.9263C42.5573 19.6945 41.5908 20.4724 40.6152 21.2391C41.0454 19.3799 41.743 17.562 42.8111 15.9605C43.3552 15.1462 44.0464 14.4407 44.6819 13.6954C43.4711 14.0056 42.2646 14.3341 41.0545 14.6455C42.5573 12.6766 44.453 10.9289 46.7586 9.90165C47.1334 9.73455 47.515 9.57866 47.8683 9.36959C46.6425 9.17026 45.4123 8.99151 44.1852 8.79491C46.0966 7.75794 48.1878 6.97232 50.3766 6.77839C51.1281 6.72799 51.8859 6.72723 52.6405 6.70745C51.5817 6.04508 50.5381 5.3595 49.4739 4.70567C51.4435 4.52767 53.4595 4.61532 55.3711 5.1404C56.2995 5.39517 57.1675 5.81089 58.0599 6.15834C57.3898 5.12567 56.6995 4.10615 56.0232 3.07812H56.0259ZM56.7346 26.772C61.1955 26.772 64.8117 23.2261 64.8117 18.8518C64.8117 14.4775 61.1955 10.9312 56.7346 10.9312C52.2742 10.9312 48.658 14.4772 48.658 18.8518C48.658 23.2265 52.2756 26.7689 56.7346 26.7689V26.772Z" fill="#E3000F"></path><path fill-rule="evenodd" clip-rule="evenodd" d="M80.8764 25.1579L80.8804 25.0133L79.9156 24.9388C78.2943 24.8136 76.6522 24.8534 75.0462 25.118L73.9527 25.2984L74.0278 24.948C72.7903 25.2574 71.529 25.4671 70.2564 25.5751C68.6278 25.7069 66.9849 25.6138 65.4121 25.1574C64.0873 24.7746 62.9606 23.758 62.4804 22.4914C61.6744 20.3681 62.3063 17.8852 63.7994 16.2009C65.4643 14.3231 67.9191 13.4456 70.3293 12.8954C71.0398 12.7395 71.7598 12.63 72.4853 12.5678C72.4034 12.4074 72.3223 12.2467 72.2458 12.0836L71.592 10.6961L73.1089 11.0531C74.423 11.3623 75.782 11.5102 77.132 11.4148C78.2628 11.3348 79.3829 10.9338 80.4772 10.6632L82.0612 10.2715L81.3412 11.7054C81.0127 12.3599 80.673 13.0089 80.3224 13.6523L80.65 13.5959C82.585 13.2618 84.4809 12.8201 86.4627 12.9496L87.6966 13.0303L87.1525 13.919C87.4419 13.9445 87.7303 13.9827 88.0179 14.0214C88.6443 14.1052 89.3067 14.1979 89.9353 14.0901C92.4337 13.6621 95.1022 13.3831 97.543 14.0987L97.3158 13.5604L98.7819 13.9306C100.762 14.4309 102.822 14.9673 104.883 14.8285C106.568 14.7149 108.239 14.446 109.917 14.2563L112.38 13.9773L110.494 15.5522C110.287 15.7249 110.067 15.8799 109.851 16.0406C109.568 16.2505 109.207 16.5213 109.097 16.869C108.933 17.3864 109.294 18.1476 109.46 18.6418L109.975 20.1796L108.449 19.5521C108.132 19.4215 107.826 19.2677 107.521 19.1159C107.019 18.8667 106.453 18.5834 105.88 18.5598C105.696 18.5551 105.515 18.6037 105.359 18.6996C105.204 18.7956 105.081 18.9346 105.006 19.0989C104.707 19.7944 104.315 20.5393 104.201 21.2885C104.09 22.0149 104.807 22.7406 105.294 23.2039L106.725 24.5636L105.291 24.4979L104.964 24.9237C104.076 26.0929 102.661 26.5685 101.272 26.8989C98.4979 27.5588 95.4659 27.2363 92.9476 25.9016C92.2888 25.5485 91.6705 25.1293 91.1008 24.6509L90.361 24.7254C88.5025 24.9125 86.635 24.9863 84.7693 25.0651L84.0727 25.0945L83.9855 24.4183C83.9855 24.4044 83.9827 24.3904 83.9805 24.3765C83.2852 24.3974 82.5886 24.4944 81.9411 24.7448L80.8737 25.1563L80.8764 25.1579ZM80.0066 14.2296C79.566 15.022 79.1133 15.8076 78.6476 16.5866C78.594 16.6766 78.5445 16.7686 78.4887 16.8571C78.243 17.25 77.9033 17.534 77.415 17.5788C76.1532 17.6948 74.8941 17.8381 73.6381 18.0089L72.4263 18.1739L72.8173 17.0406C72.8196 17.0344 72.8218 17.0282 72.8241 17.0224C71.9538 17.3864 71.1344 17.8798 70.5467 18.5904C70.2092 18.9984 69.8582 19.6313 70.0251 20.1715C70.1227 20.4872 70.584 20.644 70.8787 20.7063C71.7823 20.8971 72.7589 20.7063 73.6467 20.5189C74.6479 20.3094 75.6033 19.7036 76.533 19.2944L77.7646 18.7534L77.6161 19.8898C78.7195 18.7438 79.7122 17.4942 80.3625 16.0561C80.3967 15.9796 80.4111 15.8957 80.4025 15.8126C80.3886 15.6218 80.3067 15.4 80.2441 15.2188C80.1555 14.9572 80.0714 14.7002 80.0331 14.4255L80.0066 14.2323V14.2296ZM86.5864 17.677C86.608 17.9363 86.6306 18.1955 86.6567 18.4544C86.7372 18.2498 86.8182 18.0456 86.8997 17.8416C86.7853 17.8054 86.6796 17.7496 86.5864 17.677ZM97.6533 24.1838L97.8112 23.6815C97.8819 23.4648 97.9728 23.2551 98.083 23.0551C98.2446 22.7568 98.4385 22.4821 98.6293 22.2012C98.785 21.9693 98.9457 21.7267 99.0474 21.4671C99.4128 20.5397 99.8421 19.5977 100.111 18.6263C99.582 18.7423 99.0384 18.993 98.5929 19.1541L97.8661 19.4169C96.8271 20.2039 95.7048 20.8816 94.5195 21.4388C95.118 22.3341 95.8249 23.1776 96.7578 23.7425C97.0422 23.9139 97.341 24.0606 97.6519 24.181L97.6533 24.1838ZM19.4768 13.4422C19.6031 13.1259 19.7292 12.8093 19.8552 12.4924L20.4803 10.9179L18.8727 11.5361C16.915 12.2904 14.6419 12.7988 12.6056 12.0241L11.3839 11.5605L11.5836 12.8267C11.5959 12.9039 11.6079 12.9812 11.6196 13.0584C9.22349 13.4572 6.99779 14.5055 4.97217 15.8038C3.60371 16.6809 2.4452 17.9111 1.79517 19.389C0.738281 21.7909 1.69592 24.9225 4.15884 26.0987C6.06544 27.009 8.10524 26.8213 10.1423 26.6396C12.2553 26.4511 14.1398 25.5832 16.1606 25.0555C17.8427 24.6165 19.6215 24.6486 21.3276 24.9322L22.9309 25.1988L22.5897 24.632C23.9934 25.7181 25.4821 26.6674 27.2676 27.1504C29.1177 27.6527 31.2149 27.4981 32.8218 26.409C33.2271 26.1346 33.6047 25.9341 33.8996 25.5203C34.0603 25.298 34.1637 25.0411 34.2009 24.7715L34.2353 24.5211C34.4639 24.5621 34.6904 24.6068 34.9142 24.6536L35.7359 24.8259L35.786 24.3646C38.2403 23.5146 40.9305 23.5918 43.488 23.8465L42.8731 24.4496L44.9885 24.234C47.5139 23.9771 50.077 24.3306 52.6069 24.3831L54.1923 24.4163L53.2207 23.1915C53.0007 22.9141 52.6965 22.494 52.7761 22.122C53.0569 20.8176 53.9156 19.6692 54.9114 18.7886C56.8487 17.0781 59.3326 16.0453 61.7712 15.2168L61.8864 15.1782L63.3853 14.0523L61.7811 13.72C61.166 13.599 60.5377 13.552 59.9109 13.5801C57.7027 13.6574 55.4928 13.4781 53.2896 13.3533L51.6709 13.2618L51.7897 13.419H51.5918C50.1338 13.419 48.6767 13.5152 47.2196 13.5488L47.7992 12.8595L46.0513 12.9755C43.8834 13.1191 41.718 13.293 39.555 13.4971C38.3174 13.613 37.064 13.5983 35.8363 13.4081L36.1649 12.9712L34.7905 12.8862C32.785 12.7629 30.7776 13.0755 28.8484 13.5979L28.111 13.798L28.2336 14.2134C27.5907 13.6156 26.707 13.2659 25.8217 13.1446C23.7035 12.8552 21.5701 13.0673 19.4768 13.4422ZM34.8601 17.7338L35.3444 17.6461C36.1609 17.4981 36.9845 17.3918 37.8113 17.3134C37.0861 17.7488 36.3598 18.1831 35.6575 18.6534C35.4281 18.8065 35.2201 18.9883 35.0392 19.1943C34.9719 18.7082 34.9122 18.2212 34.8601 17.733V17.7338ZM52.4553 14.2888L52.6407 14.5318C52.8684 14.8313 53.1006 15.1272 53.3306 15.4255C52.931 15.8424 52.3815 16.1859 51.8636 16.5073C51.6264 16.121 51.3983 15.7261 51.1989 15.3204C51.4086 15.2288 51.608 15.1166 51.7943 14.9858C51.9401 14.8809 52.071 14.7581 52.1849 14.6206L52.4553 14.2903V14.2888ZM44.4729 22.8813C44.4516 21.6742 45.7062 20.7684 46.6539 20.1981L46.9072 20.0459L46.9865 19.7655C47.0049 19.7001 47.0261 19.6348 47.0481 19.5703L47.3316 18.6793C47.3645 18.7303 47.3982 18.7813 47.4315 18.8319C47.5899 19.0706 47.5931 19.3481 47.4626 19.5996C46.7952 20.8867 45.5155 21.8754 44.4729 22.8813ZM47.1107 18.3218L46.0891 18.6488C44.9865 19.0023 43.9107 19.4355 42.8011 19.7693C41.8522 20.054 40.8349 20.0335 39.8511 19.8732C40.1892 19.5676 40.5858 19.3122 40.9582 19.0888C41.8801 18.5405 42.8359 18.0486 43.8201 17.6159C44.0115 17.6518 44.2135 17.7318 44.3816 17.7925C44.5787 17.8683 44.78 17.9334 44.9845 17.9876L45.7755 18.1863L45.9182 17.4011C45.9713 17.1082 46.0046 16.808 46.0365 16.5078C46.2588 16.8315 46.4546 17.1739 46.6422 17.5055C46.797 17.7786 46.95 18.0521 47.1107 18.3218ZM11.6863 17.9305L11.4436 18.9006L12.4641 18.8434C13.9187 18.7623 15.3699 18.6232 16.8134 18.439L16.9748 18.4184L17.1135 18.3346C17.2907 18.2269 17.4487 18.0917 17.5813 17.9343C17.5848 18.3504 17.5192 18.7751 17.458 19.1414C17.2971 20.1148 16.9176 21.0415 16.3469 21.8546C16.3797 21.5204 16.4031 21.1846 16.4058 20.8457L16.4173 19.3523L15.1962 20.2507C14.0397 21.1007 12.6954 22.1351 11.1909 22.2213C10.4835 22.2618 9.96523 21.5459 9.7675 20.9617C9.53975 20.2928 9.89804 19.568 10.3353 19.063C10.7129 18.6279 11.1854 18.2616 11.6863 17.9305Z" fill="#040F16" stroke="#575656" stroke-width="0.171875" stroke-miterlimit="22.93"></path><path fill-rule="evenodd" clip-rule="evenodd" d="M77.1115 12.1594C75.6841 12.2618 74.2518 12.1054 72.8662 11.7745C73.0944 12.2657 73.3576 12.7416 73.5961 13.2332C72.5359 13.3068 71.4816 13.3963 70.4398 13.6377C68.1943 14.1573 65.8656 14.9794 64.3243 16.7448C63.0193 18.238 62.4357 20.4656 63.1453 22.3615C63.5445 23.4277 64.4868 24.2846 65.5776 24.604C67.0495 25.0343 68.5885 25.1254 70.1347 24.9987C71.7826 24.8634 73.381 24.5266 74.9502 24.064C74.9268 24.184 74.8759 24.4242 74.8507 24.5438C76.5157 24.2654 78.2136 24.2228 79.8943 24.3546C79.7512 24.0874 79.6113 23.8164 79.4763 23.5478C80.1873 23.4797 80.8974 23.4219 81.607 23.3968C81.5976 23.6655 81.5877 23.9365 81.5796 24.209C82.5264 23.838 83.5524 23.7565 84.5622 23.7855C84.5905 24.0178 84.6171 24.2497 84.6463 24.4821C86.4931 24.4038 88.3431 24.3291 90.1818 24.1414C89.6571 23.685 88.866 22.9228 89.5167 22.2298C90.5625 23.4738 91.7536 24.6416 93.1999 25.4187C95.5444 26.6788 98.3781 26.983 100.968 26.3573C102.163 26.069 103.46 25.6588 104.224 24.6393C103.539 24.6682 102.917 24.9654 102.275 25.1633C100.291 25.7754 98.041 25.6283 96.2442 24.5286C94.9491 23.7355 94.0693 22.493 93.3124 21.2278C95.1547 20.4636 96.8445 19.374 98.334 18.06L98.2089 18.5478C99.0738 18.2305 99.9738 17.7679 100.925 17.9365C100.716 19.3053 100.129 20.5771 99.6282 21.8603C99.3204 22.649 98.6661 23.2435 98.4123 24.0522C99.8293 24.3651 101.217 23.6221 102.64 23.7273C103.303 23.7765 103.966 23.8508 104.631 23.8817C103.921 23.1989 103.165 22.3276 103.319 21.2971C103.445 20.4578 103.842 19.6807 104.174 18.8997C104.308 18.5923 104.533 18.3321 104.818 18.1532C105.103 17.9741 105.437 17.8846 105.775 17.8962C106.811 17.9392 107.671 18.5712 108.599 18.9583C108.362 18.2403 107.993 17.4808 108.232 16.7119C108.477 15.9236 109.267 15.5316 109.858 15.0303C108.171 15.2239 106.494 15.4969 104.8 15.6126C102.645 15.7601 100.539 15.2121 98.4726 14.6819C98.5603 14.8927 98.7354 15.3107 98.824 15.5199C96.1227 14.0182 92.8849 14.3467 89.9644 14.8551C88.8871 15.042 87.8386 14.7409 86.7771 14.6732C86.7433 15.4624 86.6718 16.2767 86.8806 17.0373C86.9773 17.3924 87.5866 17.1246 87.9057 17.202C87.327 18.5677 86.8536 19.9787 86.2042 21.3131C85.7862 19.328 85.7137 17.2923 85.5499 15.2747C85.4968 14.6223 86.0161 14.2086 86.3172 13.7104C84.4182 13.5844 82.5565 14.0295 80.6998 14.3545C80.7934 15.0396 81.2884 15.6947 80.9707 16.4073C79.9389 18.7284 78.1173 20.5528 76.2885 22.2638C76.468 21.5364 76.6728 20.8109 76.7682 20.0659C75.7669 20.5129 74.8273 21.1219 73.7374 21.3565C72.7308 21.5705 71.6859 21.7663 70.6572 21.5462C70.0573 21.4179 69.4291 21.1043 69.2424 20.4903C68.9962 19.6827 69.3913 18.8246 69.898 18.2032C70.8885 16.9885 72.4063 16.3342 73.8855 15.8957C73.7712 16.3858 73.6308 16.8696 73.4652 17.3452C74.7274 17.1707 75.9951 17.0243 77.2672 16.906C77.6196 16.8731 77.7649 16.525 77.9157 16.2693C78.8566 14.6689 79.7557 13.042 80.5797 11.3779C79.4304 11.6665 78.3022 12.0744 77.1115 12.1601V12.1594ZM12.3945 12.7303C12.4454 13.0573 12.4943 13.3842 12.5393 13.7151C9.97238 13.9888 7.59688 15.096 5.46554 16.4816C4.2271 17.2869 3.16578 18.4182 2.57477 19.7805C1.68625 21.8294 2.45876 24.581 4.57153 25.604C6.32329 26.4528 8.29564 26.2458 10.142 26.0785C12.1684 25.8946 14.0614 25.0163 16.0207 24.4978C17.8044 24.0257 19.6841 24.0527 21.4973 24.3581C21.1028 23.6909 20.4905 23.0331 20.6759 22.1915C22.7504 23.9228 24.8059 25.8806 27.5015 26.6201C29.144 27.0707 30.9967 26.9486 32.4123 25.9756C32.8416 25.6811 33.3924 25.4089 33.4704 24.834C32.7603 24.782 32.2253 25.3077 31.5767 25.5055C29.8801 26.0225 27.8917 25.5966 26.7534 24.2188C27.0189 24.0953 27.4001 24.1297 27.587 23.8978C28.182 23.1598 29.2169 23.4507 30.0309 23.3173L29.9653 24.1109C31.6225 23.4977 33.4046 23.7221 35.0873 24.08C35.1031 23.9349 35.1322 23.6428 35.1477 23.4977L35.511 23.8266C38.1399 22.8938 40.9916 22.983 43.7281 23.2674C43.5427 21.6091 44.9737 20.4425 46.2483 19.6646C46.264 19.6088 46.2991 19.5004 46.3162 19.444C45.2096 19.8043 44.1329 20.2438 43.0215 20.5818C41.5637 21.0256 39.9942 20.8336 38.5423 20.4523C38.9676 19.6009 39.7725 19.0237 40.5663 18.5407C41.5727 17.9342 42.6177 17.3932 43.695 16.9212C44.2078 16.9428 44.6731 17.2133 45.1667 17.3393C45.3114 16.5324 45.3134 15.7021 45.524 14.9071C46.7244 15.8203 47.2468 17.2896 48.0519 18.5098C48.3606 18.979 48.3759 19.5419 48.1243 20.035C47.3782 21.4929 46.0435 22.5098 44.9034 23.6436C47.4678 23.3784 50.035 23.7363 52.5996 23.7906C52.2229 23.3088 51.8791 22.7347 52.0137 22.0957C52.3296 20.6162 53.262 19.3209 54.3775 18.3209C56.3899 16.5172 58.9432 15.4269 61.4794 14.5539L61.5807 14.4757C61.0717 14.369 60.5209 14.3279 59.8986 14.3498C57.6693 14.428 55.4445 14.2473 53.221 14.1198C53.5626 14.5743 53.914 15.0213 54.2497 15.48C53.631 16.4578 52.5244 16.9736 51.5952 17.6138C51.0853 16.7682 50.5548 15.9286 50.1993 15.0057C50.6524 14.7319 51.2284 14.6146 51.5718 14.1875C49.5846 14.1855 47.5978 14.3694 45.6109 14.3228C45.7686 14.1273 45.9328 13.9317 46.0944 13.7362C43.9378 13.8814 41.7842 14.0569 39.634 14.2626C38.2657 14.3932 36.8817 14.367 35.5252 14.1328C35.7967 15.1104 35.326 16.0291 35.2207 16.983C37.0107 16.654 38.8339 16.5223 40.6511 16.4507C39.183 17.4953 37.5863 18.344 36.0973 19.3549C35.2573 19.9247 34.9378 20.9193 34.8206 21.87C34.7172 21.6224 34.6135 21.3725 34.5688 21.1078C34.2347 19.1168 33.9956 17.1078 33.9266 15.085C33.9056 14.469 34.4324 14.0866 34.7551 13.6458C32.8364 13.5257 30.9197 13.8332 29.0737 14.3404C29.2375 14.9032 29.5668 15.4644 29.4442 16.0698C29.3191 16.6893 28.9869 17.2481 28.642 17.7746C27.5875 19.3843 26.2862 20.818 24.957 22.209C24.5547 21.8423 24.1747 21.4521 23.8192 21.0405C25.1385 20.2082 26.5021 19.3705 27.5235 18.1828C28.1102 17.5012 28.6796 16.5684 28.3161 15.6306C27.9098 14.5821 26.7877 14.0452 25.7473 13.9012C23.2696 13.5574 20.7564 13.9473 18.3264 14.4601C18.6093 13.7135 18.904 12.974 19.1944 12.2309C17.056 13.0705 14.6197 13.5871 12.3945 12.7303ZM9.82996 18.6721C10.6664 17.692 11.8421 17.0776 12.9235 16.4038C12.8052 17.0057 12.6328 17.5938 12.4864 18.1879C13.917 18.1065 15.352 17.9674 16.7727 17.7836C17.29 17.466 17.4229 16.7463 17.9615 16.4096C18.5391 17.2786 18.4195 18.3823 18.2581 19.3565C17.9567 21.1762 16.9818 22.9415 15.4261 23.996C15.5019 22.9791 15.7023 21.974 15.709 20.9544C14.4011 21.9279 12.9969 22.9994 11.3035 23.0984C10.2422 23.1602 9.44215 22.2619 9.12337 21.3127C8.80454 20.3636 9.22597 19.3795 9.82996 18.6721ZM21.4437 16.8758C21.9668 16.7229 22.4892 16.5129 23.0403 16.4965C23.3856 16.4859 23.5611 16.9399 23.3895 17.218C22.8679 18.0644 21.951 18.5454 21.1273 19.0522C21.2543 18.3287 21.3285 17.5994 21.4428 16.8758H21.4437ZM91.4134 17.2575C91.8544 16.8938 92.5762 16.8688 93.0532 17.1898C92.668 18.3702 91.6906 19.3221 90.4684 19.6255C90.7294 18.816 91.0444 18.0248 91.4134 17.2575ZM29.0796 21.046C29.7338 20.0358 30.1378 18.8888 30.8156 17.8981C30.685 18.9736 30.5209 20.0491 30.283 21.1097C29.881 21.1019 29.4789 21.0847 29.0784 21.046H29.0796ZM80.6715 21.1853C81.2421 20.1367 81.7474 19.053 82.3603 18.0276C82.3351 19.0549 82.116 20.0706 81.882 21.069C81.544 21.3033 81.0639 21.1234 80.6737 21.1853H80.6715Z" fill="white"></path></g><defs><clipPath id="clip0_1897_3873"><rect width="112.5" height="37.5" fill="white" transform="translate(0.625 0.40625)"></rect></clipPath></defs></svg> 